<svg width="512" height="192" version="1.1" viewBox="0 0 512 192" xmlns="http://www.w3.org/2000/svg" xmlns:xlink="http://www.w3.org/1999/xlink">
	<defs>
		<path id="path845" d="m780 374c-22.8 0-42 7.87-56.1 23.4-0.341 0.374-0.616 0.795-0.949 1.18v-20.7h-38.9v89.6l-51.1-89.6h-40.4v80.1l-28.4-80.1h-42.1l-30.2 84.8c-0.139-0.223-0.222-0.479-0.365-0.699-2.84-4.42-6.69-8-11.2-10.9 1.9-1.48 3.64-3.04 5.06-4.76 5.42-6.54 7.99-15.1 7.99-25 0-9.65-2.58-18.4-7.79-25.6l-0.0137-0.0215-0.0156-0.0195c-8.7-11.8-23.5-17.5-42.6-17.8h-77.1v158h72.2c7.87 0 15.2-0.696 22-2.12l0.01-2e-3c2.46-0.508 4.79-1.23 7.06-2.05l-1.49 4.17h43.1l10.3-30.5h47.4l9.56 30.5h55.5v-91.6l52.7 91.6h38.9v-19c0.278 0.302 0.507 0.642 0.791 0.939 13.4 14.6 31.1 22 51.9 22 12.6 0 23.7-2.68 32.8-8.28 3.32-2.01 6.73-4.98 10.2-8.42l2.15 12.8h29.7v-89.6h-71.8v34.7h33c-1.83 6.01-4.9 10.9-9.34 14.9-5.67 5.09-12.8 7.66-22.2 7.66-9.4 0-17.5-3.2-25-10.1-6.84-6.23-10.8-17.6-10.8-35 0-17.4 3.7-29.7 10.3-37.4l2e-3 -2e-3c6.89-8.08 15-11.8 25.7-11.8 5.64 0 10.6 0.987 15 2.9 7.84 3.46 12.3 8.9 14.3 17.8l0.898 3.87h40.1l-0.654-5.58c-1.82-15.5-9.17-28.7-21.5-39-12.4-10.4-28.9-15.5-48.6-15.5zm-375 39.6h27.6c6.73 0 12.1 0.751 16 2.02 3.53 1.5 4.8 3.45 4.8 8.97 0 5.14-1.23 7.28-3.72 8.79-3 1.8-7.33 2.9-13.2 2.9h-31.4zm137 19.4 11.8 37h-23.9zm-137 37.8h31.9c6.03 0.0629 10.4 0.918 13 2.07 4.84 2.19 6.62 5 6.62 11.3 0 7.91-2.16 11.6-7.04 14-2.57 1.23-6.96 2.12-13 2.12h-31.4z"/>
	</defs>
	<g transform="translate(-365 -368)">
		<g transform="translate(3.56 -3)">
			<use transform="translate(9,10)" width="100%" height="100%" fill="#000000" stroke="#000000" stroke-linejoin="round" stroke-width="20" xlink:href="#path845"/>
			<use transform="translate(4,4)" width="100%" height="100%" fill="#ff0000" xlink:href="#path845"/>
		</g>
	</g>
</svg>
